<?xml version="1.0" encoding="UTF-8" standalone="no"?>
<!-- Created with Inkscape (http://www.inkscape.org/) -->

<svg
   xmlns:dc="http://purl.org/dc/elements/1.1/"
   xmlns:cc="http://creativecommons.org/ns#"
   xmlns:rdf="http://www.w3.org/1999/02/22-rdf-syntax-ns#"
   xmlns:svg="http://www.w3.org/2000/svg"
   xmlns="http://www.w3.org/2000/svg"
   xmlns:sodipodi="http://sodipodi.sourceforge.net/DTD/sodipodi-0.dtd"
   xmlns:inkscape="http://www.inkscape.org/namespaces/inkscape"
   inkscape:version="0.48.3.1 r9886"
   version="1.1"
   id="fgfs-logo"
   height="100%"
   width="100%"
   sodipodi:docname="FlightGear_logo.svg"
   viewBox="0 0 200 200"
   preserveAspectRatio="xMinYMin meet">
  <title
     id="title3935">FlightGear Logo</title>
  <defs
     id="defs4" />
  <sodipodi:namedview
     id="base"
     pagecolor="#ffffff"
     bordercolor="#666666"
     borderopacity="1.0"
     inkscape:pageopacity="0.0"
     inkscape:pageshadow="2"
     inkscape:zoom="2.82"
     inkscape:cx="100"
     inkscape:cy="100"
     inkscape:document-units="px"
     inkscape:current-layer="fgfs-logo"
     showgrid="false"
     inkscape:window-width="1236"
     inkscape:window-height="782"
     inkscape:window-x="40"
     inkscape:window-y="-1"
     inkscape:window-maximized="1" />
  <metadata
     id="metadata7">
    <rdf:RDF>
      <cc:Work
         rdf:about="">
        <dc:format>image/svg+xml</dc:format>
        <dc:type
           rdf:resource="http://purl.org/dc/dcmitype/StillImage" />
        <dc:title>FlightGear Logo</dc:title>
        <dc:date>2014-09-28</dc:date>
        <dc:creator>
          <cc:Agent>
            <dc:title>flightgear.org</dc:title>
          </cc:Agent>
        </dc:creator>
        <dc:rights>
          <cc:Agent>
            <dc:title>flightgear.org</dc:title>
          </cc:Agent>
        </dc:rights>
        <dc:publisher>
          <cc:Agent>
            <dc:title>flightgear.org</dc:title>
          </cc:Agent>
        </dc:publisher>
        <dc:identifier>flightgear.org/Logo</dc:identifier>
        <dc:subject>
          <rdf:Bag>
            <rdf:li>The FlightGear Logo</rdf:li>
          </rdf:Bag>
        </dc:subject>
        <dc:contributor>
          <cc:Agent>
            <dc:title>Original: unknown artist
Beautified: Gijs de Roy
Vectorized: Torsten Dreyer</dc:title>
          </cc:Agent>
        </dc:contributor>
        <cc:license
           rdf:resource="http://www.gnu.org/licenses/gpl-2.0.html" />
      </cc:Work>
    </rdf:RDF>
  </metadata>
    <rect
       style="fill:#ffffff"
       id="bg"
       width="200"
       height="200"
       x="0"
       y="0" />
    <rect
       style="fill:#000000"
       id="black"
       width="75"
       height="200"
       x="0"
       y="0" />
    <path
       id="yellow"
       style="fill:#fbfc46"
       d="m 0,-6.3652344e-5 25,0 L 25,24.999936 l -25,0 z M 0,49.999936 l 25,0 0,25 -25,0 z m 0,50 25,0 0,25.000004 -25,0 z m 0,50.000024 25,0 0,25 -25,0 z M 50,-6.3652344e-5 l 25,0 L 75,24.999936 l -25,0 z M 50,49.999936 l 25,0 0,25 -25,0 z m 0,50 25,0 0,25.000004 -25,0 z m 0,50.000024 25,0 0,25 -25,0 z M 25,24.999936 l 25,0 0,25 -25,0 z m 0,50 25,0 0,25 -25,0 z m 0,50.000004 25,0 0,25.00002 -25,0 z m 0,50.00002 25,0 0,25 -25,0 z"
       inkscape:connector-curvature="0" />
    <path
       style="fill:#427ebf"
       d="m 97.41844,27.531176 c -1.662,0 -3,1.338 -3,3 l 0,10.0625 0,10.96875 0,33.96875 0,20.937504 0,62.99998 c 0,1.662 1.338,3 3,3 l 29.1875,0 c 1.662,0 3,-1.338 3,-3 l 0,-59.99998 51.90625,0 c 1.662,0 3,-1.338 3,-3 l 0,-20.937504 c 0,-1.662 -1.338,-3 -3,-3 l -51.90625,0 0,-27.96875 55.9375,0 c 1.662,0 3,-1.338 3,-3 l 0,-21.03125 c 0,-1.662 -1.338,-3 -3,-3 l -88.125,0 z"
       id="F"
       inkscape:connector-curvature="0" />
</svg>
